<mxfile host="app.diagrams.net" modified="2024-03-25T03:48:58.077Z" agent="Mozilla/5.0 (Windows NT 10.0; Win64; x64) AppleWebKit/537.36 (KHTML, like Gecko) Chrome/122.0.0.0 Safari/537.36 Edg/122.0.0.0" etag="cqF8ab_05g2byrOiD5ic" version="22.1.21" type="github">
  <diagram name="第 1 页" id="Dvlfbs5kGQ-PsMck--tt">
    <mxGraphModel dx="1638" dy="863" grid="1" gridSize="10" guides="1" tooltips="1" connect="1" arrows="1" fold="1" page="1" pageScale="1" pageWidth="1200" pageHeight="1920" math="0" shadow="0">
      <root>
        <mxCell id="0" />
        <mxCell id="1" parent="0" />
        <mxCell id="TFEilJAdVY5L6RVv-F__-76" value="" style="edgeStyle=orthogonalEdgeStyle;rounded=0;orthogonalLoop=1;jettySize=auto;html=1;entryX=0.5;entryY=0;entryDx=0;entryDy=0;" parent="1" source="TFEilJAdVY5L6RVv-F__-3" target="TFEilJAdVY5L6RVv-F__-78" edge="1">
          <mxGeometry relative="1" as="geometry">
            <mxPoint x="585" y="370" as="targetPoint" />
          </mxGeometry>
        </mxCell>
        <mxCell id="TFEilJAdVY5L6RVv-F__-3" value="输入源域数据&lt;br&gt;与目标域数据" style="rounded=1;whiteSpace=wrap;html=1;fontSize=12;glass=0;strokeWidth=1;shadow=0;" parent="1" vertex="1">
          <mxGeometry x="525" y="260" width="120" height="40" as="geometry" />
        </mxCell>
        <mxCell id="TFEilJAdVY5L6RVv-F__-117" value="" style="edgeStyle=orthogonalEdgeStyle;rounded=0;orthogonalLoop=1;jettySize=auto;html=1;" parent="1" source="TFEilJAdVY5L6RVv-F__-64" target="TFEilJAdVY5L6RVv-F__-116" edge="1">
          <mxGeometry relative="1" as="geometry" />
        </mxCell>
        <mxCell id="TFEilJAdVY5L6RVv-F__-64" value="图像转换" style="rounded=1;whiteSpace=wrap;html=1;fontSize=12;glass=0;strokeWidth=1;shadow=0;fillColor=#d5e8d4;strokeColor=#82b366;" parent="1" vertex="1">
          <mxGeometry x="330" y="480" width="110" height="40" as="geometry" />
        </mxCell>
        <mxCell id="TFEilJAdVY5L6RVv-F__-121" style="edgeStyle=orthogonalEdgeStyle;rounded=0;orthogonalLoop=1;jettySize=auto;html=1;entryX=0.5;entryY=0;entryDx=0;entryDy=0;" parent="1" source="TFEilJAdVY5L6RVv-F__-65" target="TFEilJAdVY5L6RVv-F__-120" edge="1">
          <mxGeometry relative="1" as="geometry" />
        </mxCell>
        <mxCell id="TFEilJAdVY5L6RVv-F__-65" value="频域可视化" style="rounded=1;whiteSpace=wrap;html=1;fontSize=12;glass=0;strokeWidth=1;shadow=0;fillColor=#ffe6cc;strokeColor=#d79b00;" parent="1" vertex="1">
          <mxGeometry x="470" y="480" width="90" height="40" as="geometry" />
        </mxCell>
        <mxCell id="TFEilJAdVY5L6RVv-F__-131" style="edgeStyle=orthogonalEdgeStyle;rounded=0;orthogonalLoop=1;jettySize=auto;html=1;entryX=0.5;entryY=0;entryDx=0;entryDy=0;" parent="1" source="TFEilJAdVY5L6RVv-F__-66" target="TFEilJAdVY5L6RVv-F__-126" edge="1">
          <mxGeometry relative="1" as="geometry" />
        </mxCell>
        <mxCell id="TFEilJAdVY5L6RVv-F__-66" value="图像分布可视化" style="rounded=1;whiteSpace=wrap;html=1;fontSize=12;glass=0;strokeWidth=1;shadow=0;fillColor=#fff2cc;strokeColor=#d6b656;" parent="1" vertex="1">
          <mxGeometry x="600" y="480" width="90" height="40" as="geometry" />
        </mxCell>
        <mxCell id="TFEilJAdVY5L6RVv-F__-144" style="edgeStyle=orthogonalEdgeStyle;rounded=0;orthogonalLoop=1;jettySize=auto;html=1;entryX=0.5;entryY=0;entryDx=0;entryDy=0;" parent="1" source="TFEilJAdVY5L6RVv-F__-67" target="TFEilJAdVY5L6RVv-F__-135" edge="1">
          <mxGeometry relative="1" as="geometry" />
        </mxCell>
        <mxCell id="TFEilJAdVY5L6RVv-F__-67" value="检测结果可视化" style="rounded=1;whiteSpace=wrap;html=1;fontSize=12;glass=0;strokeWidth=1;shadow=0;fillColor=#dae8fc;strokeColor=#6c8ebf;" parent="1" vertex="1">
          <mxGeometry x="730" y="480" width="90" height="40" as="geometry" />
        </mxCell>
        <mxCell id="TFEilJAdVY5L6RVv-F__-70" value="" style="edgeStyle=orthogonalEdgeStyle;rounded=0;orthogonalLoop=1;jettySize=auto;html=1;" parent="1" source="TFEilJAdVY5L6RVv-F__-68" target="TFEilJAdVY5L6RVv-F__-69" edge="1">
          <mxGeometry relative="1" as="geometry" />
        </mxCell>
        <mxCell id="TFEilJAdVY5L6RVv-F__-68" value="登录" style="rounded=1;whiteSpace=wrap;html=1;fontSize=12;glass=0;strokeWidth=1;shadow=0;" parent="1" vertex="1">
          <mxGeometry x="525" y="100" width="120" height="40" as="geometry" />
        </mxCell>
        <mxCell id="TFEilJAdVY5L6RVv-F__-71" value="" style="edgeStyle=orthogonalEdgeStyle;rounded=0;orthogonalLoop=1;jettySize=auto;html=1;" parent="1" source="TFEilJAdVY5L6RVv-F__-69" target="TFEilJAdVY5L6RVv-F__-3" edge="1">
          <mxGeometry relative="1" as="geometry" />
        </mxCell>
        <mxCell id="TFEilJAdVY5L6RVv-F__-72" value="正确" style="edgeLabel;html=1;align=center;verticalAlign=middle;resizable=0;points=[];" parent="TFEilJAdVY5L6RVv-F__-71" vertex="1" connectable="0">
          <mxGeometry x="-0.206" y="-2" relative="1" as="geometry">
            <mxPoint x="-13" as="offset" />
          </mxGeometry>
        </mxCell>
        <mxCell id="TFEilJAdVY5L6RVv-F__-73" style="edgeStyle=orthogonalEdgeStyle;rounded=0;orthogonalLoop=1;jettySize=auto;html=1;entryX=1;entryY=0.5;entryDx=0;entryDy=0;" parent="1" source="TFEilJAdVY5L6RVv-F__-69" target="TFEilJAdVY5L6RVv-F__-68" edge="1">
          <mxGeometry relative="1" as="geometry">
            <Array as="points">
              <mxPoint x="665" y="190" />
              <mxPoint x="665" y="120" />
            </Array>
          </mxGeometry>
        </mxCell>
        <mxCell id="TFEilJAdVY5L6RVv-F__-74" value="错误" style="edgeLabel;html=1;align=center;verticalAlign=middle;resizable=0;points=[];" parent="TFEilJAdVY5L6RVv-F__-73" vertex="1" connectable="0">
          <mxGeometry x="0.0263" relative="1" as="geometry">
            <mxPoint x="15" as="offset" />
          </mxGeometry>
        </mxCell>
        <mxCell id="TFEilJAdVY5L6RVv-F__-69" value="用户名密码&lt;br&gt;正确？" style="rhombus;whiteSpace=wrap;html=1;shadow=0;fontFamily=Helvetica;fontSize=12;align=center;strokeWidth=1;spacing=6;spacingTop=-4;" parent="1" vertex="1">
          <mxGeometry x="530" y="160" width="110" height="60" as="geometry" />
        </mxCell>
        <mxCell id="TFEilJAdVY5L6RVv-F__-81" style="edgeStyle=orthogonalEdgeStyle;rounded=0;orthogonalLoop=1;jettySize=auto;html=1;entryX=1;entryY=0.5;entryDx=0;entryDy=0;" parent="1" source="TFEilJAdVY5L6RVv-F__-78" target="TFEilJAdVY5L6RVv-F__-3" edge="1">
          <mxGeometry relative="1" as="geometry">
            <Array as="points">
              <mxPoint x="665" y="370" />
              <mxPoint x="665" y="280" />
            </Array>
          </mxGeometry>
        </mxCell>
        <mxCell id="TFEilJAdVY5L6RVv-F__-82" value="否" style="edgeLabel;html=1;align=center;verticalAlign=middle;resizable=0;points=[];" parent="TFEilJAdVY5L6RVv-F__-81" vertex="1" connectable="0">
          <mxGeometry x="0.0222" y="1" relative="1" as="geometry">
            <mxPoint x="16" as="offset" />
          </mxGeometry>
        </mxCell>
        <mxCell id="TFEilJAdVY5L6RVv-F__-86" style="edgeStyle=orthogonalEdgeStyle;rounded=0;orthogonalLoop=1;jettySize=auto;html=1;entryX=0.5;entryY=0;entryDx=0;entryDy=0;" parent="1" source="TFEilJAdVY5L6RVv-F__-78" target="TFEilJAdVY5L6RVv-F__-64" edge="1">
          <mxGeometry relative="1" as="geometry">
            <mxPoint x="585" y="440" as="targetPoint" />
            <Array as="points">
              <mxPoint x="585" y="440" />
              <mxPoint x="385" y="440" />
            </Array>
          </mxGeometry>
        </mxCell>
        <mxCell id="TFEilJAdVY5L6RVv-F__-148" style="edgeStyle=orthogonalEdgeStyle;rounded=0;orthogonalLoop=1;jettySize=auto;html=1;entryX=0.5;entryY=0;entryDx=0;entryDy=0;" parent="1" source="TFEilJAdVY5L6RVv-F__-78" target="TFEilJAdVY5L6RVv-F__-65" edge="1">
          <mxGeometry relative="1" as="geometry" />
        </mxCell>
        <mxCell id="TFEilJAdVY5L6RVv-F__-149" style="edgeStyle=orthogonalEdgeStyle;rounded=0;orthogonalLoop=1;jettySize=auto;html=1;entryX=0.5;entryY=0;entryDx=0;entryDy=0;" parent="1" source="TFEilJAdVY5L6RVv-F__-78" target="TFEilJAdVY5L6RVv-F__-66" edge="1">
          <mxGeometry relative="1" as="geometry" />
        </mxCell>
        <mxCell id="TFEilJAdVY5L6RVv-F__-150" style="edgeStyle=orthogonalEdgeStyle;rounded=0;orthogonalLoop=1;jettySize=auto;html=1;entryX=0.5;entryY=0;entryDx=0;entryDy=0;" parent="1" source="TFEilJAdVY5L6RVv-F__-78" target="TFEilJAdVY5L6RVv-F__-67" edge="1">
          <mxGeometry relative="1" as="geometry">
            <Array as="points">
              <mxPoint x="585" y="440" />
              <mxPoint x="775" y="440" />
            </Array>
          </mxGeometry>
        </mxCell>
        <mxCell id="TFEilJAdVY5L6RVv-F__-78" value="源域和目标域&lt;br&gt;数据存在？" style="rhombus;whiteSpace=wrap;html=1;shadow=0;fontFamily=Helvetica;fontSize=12;align=center;strokeWidth=1;spacing=6;spacingTop=-4;" parent="1" vertex="1">
          <mxGeometry x="530" y="340" width="110" height="60" as="geometry" />
        </mxCell>
        <mxCell id="TFEilJAdVY5L6RVv-F__-95" value="" style="edgeStyle=orthogonalEdgeStyle;rounded=0;orthogonalLoop=1;jettySize=auto;html=1;" parent="1" source="TFEilJAdVY5L6RVv-F__-87" target="TFEilJAdVY5L6RVv-F__-88" edge="1">
          <mxGeometry relative="1" as="geometry" />
        </mxCell>
        <mxCell id="TFEilJAdVY5L6RVv-F__-87" value="获取源域图像&lt;br&gt;频域" style="rounded=1;whiteSpace=wrap;html=1;" parent="1" vertex="1">
          <mxGeometry x="465" y="610" width="100" height="40" as="geometry" />
        </mxCell>
        <mxCell id="TFEilJAdVY5L6RVv-F__-110" value="" style="edgeStyle=orthogonalEdgeStyle;rounded=0;orthogonalLoop=1;jettySize=auto;html=1;" parent="1" source="TFEilJAdVY5L6RVv-F__-88" target="TFEilJAdVY5L6RVv-F__-109" edge="1">
          <mxGeometry relative="1" as="geometry" />
        </mxCell>
        <mxCell id="TFEilJAdVY5L6RVv-F__-88" value="获取目标域图像&lt;br&gt;频域" style="rounded=1;whiteSpace=wrap;html=1;" parent="1" vertex="1">
          <mxGeometry x="465" y="670" width="100" height="40" as="geometry" />
        </mxCell>
        <mxCell id="TFEilJAdVY5L6RVv-F__-97" value="" style="edgeStyle=orthogonalEdgeStyle;rounded=0;orthogonalLoop=1;jettySize=auto;html=1;" parent="1" source="TFEilJAdVY5L6RVv-F__-89" target="TFEilJAdVY5L6RVv-F__-90" edge="1">
          <mxGeometry relative="1" as="geometry" />
        </mxCell>
        <mxCell id="TFEilJAdVY5L6RVv-F__-89" value="获取转换后图像&lt;br&gt;频域" style="rounded=1;whiteSpace=wrap;html=1;" parent="1" vertex="1">
          <mxGeometry x="335" y="850" width="100" height="40" as="geometry" />
        </mxCell>
        <mxCell id="TFEilJAdVY5L6RVv-F__-90" value="控件绑定图像&lt;br&gt;并展示" style="rounded=1;whiteSpace=wrap;html=1;" parent="1" vertex="1">
          <mxGeometry x="335" y="910" width="100" height="40" as="geometry" />
        </mxCell>
        <mxCell id="TFEilJAdVY5L6RVv-F__-108" value="" style="edgeStyle=orthogonalEdgeStyle;rounded=0;orthogonalLoop=1;jettySize=auto;html=1;" parent="1" source="TFEilJAdVY5L6RVv-F__-105" target="TFEilJAdVY5L6RVv-F__-107" edge="1">
          <mxGeometry relative="1" as="geometry" />
        </mxCell>
        <mxCell id="TFEilJAdVY5L6RVv-F__-105" value="获取源域图像&lt;br&gt;频域" style="rounded=1;whiteSpace=wrap;html=1;" parent="1" vertex="1">
          <mxGeometry x="335" y="610" width="100" height="40" as="geometry" />
        </mxCell>
        <mxCell id="TFEilJAdVY5L6RVv-F__-137" style="edgeStyle=orthogonalEdgeStyle;rounded=0;orthogonalLoop=1;jettySize=auto;html=1;entryX=0.5;entryY=0;entryDx=0;entryDy=0;" parent="1" source="TFEilJAdVY5L6RVv-F__-107" target="TFEilJAdVY5L6RVv-F__-136" edge="1">
          <mxGeometry relative="1" as="geometry" />
        </mxCell>
        <mxCell id="TFEilJAdVY5L6RVv-F__-107" value="获取目标域图像&lt;br&gt;频域" style="rounded=1;whiteSpace=wrap;html=1;" parent="1" vertex="1">
          <mxGeometry x="335" y="670" width="100" height="40" as="geometry" />
        </mxCell>
        <mxCell id="TFEilJAdVY5L6RVv-F__-109" value="控件绑定图像&lt;br&gt;并展示" style="rounded=1;whiteSpace=wrap;html=1;" parent="1" vertex="1">
          <mxGeometry x="465" y="730" width="100" height="40" as="geometry" />
        </mxCell>
        <mxCell id="TFEilJAdVY5L6RVv-F__-114" value="" style="edgeStyle=orthogonalEdgeStyle;rounded=0;orthogonalLoop=1;jettySize=auto;html=1;" parent="1" source="TFEilJAdVY5L6RVv-F__-112" target="TFEilJAdVY5L6RVv-F__-89" edge="1">
          <mxGeometry relative="1" as="geometry" />
        </mxCell>
        <mxCell id="TFEilJAdVY5L6RVv-F__-112" value="交换源域和目标域低频域部分信息" style="rounded=1;whiteSpace=wrap;html=1;" parent="1" vertex="1">
          <mxGeometry x="335" y="790" width="100" height="40" as="geometry" />
        </mxCell>
        <mxCell id="TFEilJAdVY5L6RVv-F__-119" value="" style="edgeStyle=orthogonalEdgeStyle;rounded=0;orthogonalLoop=1;jettySize=auto;html=1;" parent="1" source="TFEilJAdVY5L6RVv-F__-116" target="TFEilJAdVY5L6RVv-F__-105" edge="1">
          <mxGeometry relative="1" as="geometry" />
        </mxCell>
        <mxCell id="TFEilJAdVY5L6RVv-F__-116" value="傅里叶变换" style="rounded=1;whiteSpace=wrap;html=1;" parent="1" vertex="1">
          <mxGeometry x="335" y="550" width="100" height="40" as="geometry" />
        </mxCell>
        <mxCell id="TFEilJAdVY5L6RVv-F__-122" style="edgeStyle=orthogonalEdgeStyle;rounded=0;orthogonalLoop=1;jettySize=auto;html=1;entryX=0.5;entryY=0;entryDx=0;entryDy=0;" parent="1" source="TFEilJAdVY5L6RVv-F__-120" target="TFEilJAdVY5L6RVv-F__-87" edge="1">
          <mxGeometry relative="1" as="geometry" />
        </mxCell>
        <mxCell id="TFEilJAdVY5L6RVv-F__-120" value="傅里叶变换" style="rounded=1;whiteSpace=wrap;html=1;" parent="1" vertex="1">
          <mxGeometry x="465" y="550" width="100" height="40" as="geometry" />
        </mxCell>
        <mxCell id="TFEilJAdVY5L6RVv-F__-132" style="edgeStyle=orthogonalEdgeStyle;rounded=0;orthogonalLoop=1;jettySize=auto;html=1;entryX=0.5;entryY=0;entryDx=0;entryDy=0;" parent="1" source="TFEilJAdVY5L6RVv-F__-126" target="TFEilJAdVY5L6RVv-F__-127" edge="1">
          <mxGeometry relative="1" as="geometry" />
        </mxCell>
        <mxCell id="TFEilJAdVY5L6RVv-F__-126" value="获取源域图像&lt;br&gt;直方图" style="rounded=1;whiteSpace=wrap;html=1;" parent="1" vertex="1">
          <mxGeometry x="595" y="550" width="100" height="40" as="geometry" />
        </mxCell>
        <mxCell id="TFEilJAdVY5L6RVv-F__-133" style="edgeStyle=orthogonalEdgeStyle;rounded=0;orthogonalLoop=1;jettySize=auto;html=1;entryX=0.5;entryY=0;entryDx=0;entryDy=0;" parent="1" source="TFEilJAdVY5L6RVv-F__-127" target="TFEilJAdVY5L6RVv-F__-128" edge="1">
          <mxGeometry relative="1" as="geometry" />
        </mxCell>
        <mxCell id="TFEilJAdVY5L6RVv-F__-127" value="获取目标域图像&lt;br&gt;直方图" style="rounded=1;whiteSpace=wrap;html=1;" parent="1" vertex="1">
          <mxGeometry x="595" y="610" width="100" height="40" as="geometry" />
        </mxCell>
        <mxCell id="TFEilJAdVY5L6RVv-F__-134" style="edgeStyle=orthogonalEdgeStyle;rounded=0;orthogonalLoop=1;jettySize=auto;html=1;entryX=0.5;entryY=0;entryDx=0;entryDy=0;" parent="1" source="TFEilJAdVY5L6RVv-F__-128" target="TFEilJAdVY5L6RVv-F__-129" edge="1">
          <mxGeometry relative="1" as="geometry" />
        </mxCell>
        <mxCell id="TFEilJAdVY5L6RVv-F__-128" value="获取转换后图像&lt;br&gt;直方图" style="rounded=1;whiteSpace=wrap;html=1;" parent="1" vertex="1">
          <mxGeometry x="595" y="670" width="100" height="40" as="geometry" />
        </mxCell>
        <mxCell id="TFEilJAdVY5L6RVv-F__-129" value="控件绑定图像&lt;br&gt;并展示" style="rounded=1;whiteSpace=wrap;html=1;" parent="1" vertex="1">
          <mxGeometry x="595" y="730" width="100" height="40" as="geometry" />
        </mxCell>
        <mxCell id="TFEilJAdVY5L6RVv-F__-145" style="edgeStyle=orthogonalEdgeStyle;rounded=0;orthogonalLoop=1;jettySize=auto;html=1;entryX=0.5;entryY=0;entryDx=0;entryDy=0;" parent="1" source="TFEilJAdVY5L6RVv-F__-135" target="TFEilJAdVY5L6RVv-F__-139" edge="1">
          <mxGeometry relative="1" as="geometry" />
        </mxCell>
        <mxCell id="TFEilJAdVY5L6RVv-F__-135" value="选择模型权重" style="rounded=1;whiteSpace=wrap;html=1;" parent="1" vertex="1">
          <mxGeometry x="725" y="550" width="100" height="40" as="geometry" />
        </mxCell>
        <mxCell id="TFEilJAdVY5L6RVv-F__-138" style="edgeStyle=orthogonalEdgeStyle;rounded=0;orthogonalLoop=1;jettySize=auto;html=1;entryX=0.5;entryY=0;entryDx=0;entryDy=0;" parent="1" source="TFEilJAdVY5L6RVv-F__-136" target="TFEilJAdVY5L6RVv-F__-112" edge="1">
          <mxGeometry relative="1" as="geometry" />
        </mxCell>
        <mxCell id="TFEilJAdVY5L6RVv-F__-136" value="调整交换&lt;br&gt;区域大小" style="rounded=1;whiteSpace=wrap;html=1;" parent="1" vertex="1">
          <mxGeometry x="335" y="730" width="100" height="40" as="geometry" />
        </mxCell>
        <mxCell id="TFEilJAdVY5L6RVv-F__-146" style="edgeStyle=orthogonalEdgeStyle;rounded=0;orthogonalLoop=1;jettySize=auto;html=1;entryX=0.5;entryY=0;entryDx=0;entryDy=0;" parent="1" source="TFEilJAdVY5L6RVv-F__-139" target="TFEilJAdVY5L6RVv-F__-140" edge="1">
          <mxGeometry relative="1" as="geometry" />
        </mxCell>
        <mxCell id="TFEilJAdVY5L6RVv-F__-139" value="调整检测框阈值" style="rounded=1;whiteSpace=wrap;html=1;" parent="1" vertex="1">
          <mxGeometry x="725" y="610" width="100" height="40" as="geometry" />
        </mxCell>
        <mxCell id="TFEilJAdVY5L6RVv-F__-147" style="edgeStyle=orthogonalEdgeStyle;rounded=0;orthogonalLoop=1;jettySize=auto;html=1;entryX=0.5;entryY=0;entryDx=0;entryDy=0;" parent="1" source="TFEilJAdVY5L6RVv-F__-140" target="TFEilJAdVY5L6RVv-F__-142" edge="1">
          <mxGeometry relative="1" as="geometry" />
        </mxCell>
        <mxCell id="TFEilJAdVY5L6RVv-F__-140" value="获取检测结果" style="rounded=1;whiteSpace=wrap;html=1;" parent="1" vertex="1">
          <mxGeometry x="725" y="670" width="100" height="40" as="geometry" />
        </mxCell>
        <mxCell id="TFEilJAdVY5L6RVv-F__-142" value="控件绑定图像&lt;br&gt;并展示" style="rounded=1;whiteSpace=wrap;html=1;" parent="1" vertex="1">
          <mxGeometry x="725" y="730" width="100" height="40" as="geometry" />
        </mxCell>
        <mxCell id="KKW1EfT1PSWqCPjwvVtM-1" value="" style="edgeStyle=orthogonalEdgeStyle;rounded=0;orthogonalLoop=1;jettySize=auto;html=1;entryX=0.5;entryY=0;entryDx=0;entryDy=0;" edge="1" parent="1" source="KKW1EfT1PSWqCPjwvVtM-2" target="KKW1EfT1PSWqCPjwvVtM-24">
          <mxGeometry relative="1" as="geometry">
            <mxPoint x="1155" y="360" as="targetPoint" />
          </mxGeometry>
        </mxCell>
        <mxCell id="KKW1EfT1PSWqCPjwvVtM-2" value="输入源域数据&lt;br&gt;与目标域数据" style="rounded=1;whiteSpace=wrap;html=1;fontSize=12;glass=0;strokeWidth=1;shadow=0;" vertex="1" parent="1">
          <mxGeometry x="1095" y="250" width="120" height="40" as="geometry" />
        </mxCell>
        <mxCell id="KKW1EfT1PSWqCPjwvVtM-3" value="" style="edgeStyle=orthogonalEdgeStyle;rounded=0;orthogonalLoop=1;jettySize=auto;html=1;" edge="1" parent="1" source="KKW1EfT1PSWqCPjwvVtM-4" target="KKW1EfT1PSWqCPjwvVtM-40">
          <mxGeometry relative="1" as="geometry" />
        </mxCell>
        <mxCell id="KKW1EfT1PSWqCPjwvVtM-4" value="图像转换" style="rounded=1;whiteSpace=wrap;html=1;fontSize=12;glass=0;strokeWidth=1;shadow=0;fillColor=#d5e8d4;strokeColor=#82b366;" vertex="1" parent="1">
          <mxGeometry x="1025" y="470" width="110" height="40" as="geometry" />
        </mxCell>
        <mxCell id="KKW1EfT1PSWqCPjwvVtM-9" style="edgeStyle=orthogonalEdgeStyle;rounded=0;orthogonalLoop=1;jettySize=auto;html=1;entryX=0.5;entryY=0;entryDx=0;entryDy=0;" edge="1" parent="1" source="KKW1EfT1PSWqCPjwvVtM-10" target="KKW1EfT1PSWqCPjwvVtM-51">
          <mxGeometry relative="1" as="geometry" />
        </mxCell>
        <mxCell id="KKW1EfT1PSWqCPjwvVtM-10" value="检测结果可视化" style="rounded=1;whiteSpace=wrap;html=1;fontSize=12;glass=0;strokeWidth=1;shadow=0;fillColor=#dae8fc;strokeColor=#6c8ebf;" vertex="1" parent="1">
          <mxGeometry x="1192" y="471" width="90" height="40" as="geometry" />
        </mxCell>
        <mxCell id="KKW1EfT1PSWqCPjwvVtM-11" value="" style="edgeStyle=orthogonalEdgeStyle;rounded=0;orthogonalLoop=1;jettySize=auto;html=1;" edge="1" parent="1" source="KKW1EfT1PSWqCPjwvVtM-12" target="KKW1EfT1PSWqCPjwvVtM-17">
          <mxGeometry relative="1" as="geometry" />
        </mxCell>
        <mxCell id="KKW1EfT1PSWqCPjwvVtM-12" value="登录" style="rounded=1;whiteSpace=wrap;html=1;fontSize=12;glass=0;strokeWidth=1;shadow=0;" vertex="1" parent="1">
          <mxGeometry x="1095" y="90" width="120" height="40" as="geometry" />
        </mxCell>
        <mxCell id="KKW1EfT1PSWqCPjwvVtM-13" value="" style="edgeStyle=orthogonalEdgeStyle;rounded=0;orthogonalLoop=1;jettySize=auto;html=1;" edge="1" parent="1" source="KKW1EfT1PSWqCPjwvVtM-17" target="KKW1EfT1PSWqCPjwvVtM-2">
          <mxGeometry relative="1" as="geometry" />
        </mxCell>
        <mxCell id="KKW1EfT1PSWqCPjwvVtM-14" value="正确" style="edgeLabel;html=1;align=center;verticalAlign=middle;resizable=0;points=[];" vertex="1" connectable="0" parent="KKW1EfT1PSWqCPjwvVtM-13">
          <mxGeometry x="-0.206" y="-2" relative="1" as="geometry">
            <mxPoint x="-13" as="offset" />
          </mxGeometry>
        </mxCell>
        <mxCell id="KKW1EfT1PSWqCPjwvVtM-15" style="edgeStyle=orthogonalEdgeStyle;rounded=0;orthogonalLoop=1;jettySize=auto;html=1;entryX=1;entryY=0.5;entryDx=0;entryDy=0;" edge="1" parent="1" source="KKW1EfT1PSWqCPjwvVtM-17" target="KKW1EfT1PSWqCPjwvVtM-12">
          <mxGeometry relative="1" as="geometry">
            <Array as="points">
              <mxPoint x="1235" y="180" />
              <mxPoint x="1235" y="110" />
            </Array>
          </mxGeometry>
        </mxCell>
        <mxCell id="KKW1EfT1PSWqCPjwvVtM-16" value="错误" style="edgeLabel;html=1;align=center;verticalAlign=middle;resizable=0;points=[];" vertex="1" connectable="0" parent="KKW1EfT1PSWqCPjwvVtM-15">
          <mxGeometry x="0.0263" relative="1" as="geometry">
            <mxPoint x="15" as="offset" />
          </mxGeometry>
        </mxCell>
        <mxCell id="KKW1EfT1PSWqCPjwvVtM-17" value="用户名密码&lt;br&gt;正确？" style="rhombus;whiteSpace=wrap;html=1;shadow=0;fontFamily=Helvetica;fontSize=12;align=center;strokeWidth=1;spacing=6;spacingTop=-4;" vertex="1" parent="1">
          <mxGeometry x="1100" y="150" width="110" height="60" as="geometry" />
        </mxCell>
        <mxCell id="KKW1EfT1PSWqCPjwvVtM-18" style="edgeStyle=orthogonalEdgeStyle;rounded=0;orthogonalLoop=1;jettySize=auto;html=1;entryX=1;entryY=0.5;entryDx=0;entryDy=0;" edge="1" parent="1" source="KKW1EfT1PSWqCPjwvVtM-24" target="KKW1EfT1PSWqCPjwvVtM-2">
          <mxGeometry relative="1" as="geometry">
            <Array as="points">
              <mxPoint x="1235" y="360" />
              <mxPoint x="1235" y="270" />
            </Array>
          </mxGeometry>
        </mxCell>
        <mxCell id="KKW1EfT1PSWqCPjwvVtM-19" value="否" style="edgeLabel;html=1;align=center;verticalAlign=middle;resizable=0;points=[];" vertex="1" connectable="0" parent="KKW1EfT1PSWqCPjwvVtM-18">
          <mxGeometry x="0.0222" y="1" relative="1" as="geometry">
            <mxPoint x="16" as="offset" />
          </mxGeometry>
        </mxCell>
        <mxCell id="KKW1EfT1PSWqCPjwvVtM-20" style="edgeStyle=orthogonalEdgeStyle;rounded=0;orthogonalLoop=1;jettySize=auto;html=1;entryX=0.5;entryY=0;entryDx=0;entryDy=0;" edge="1" parent="1" source="KKW1EfT1PSWqCPjwvVtM-24" target="KKW1EfT1PSWqCPjwvVtM-4">
          <mxGeometry relative="1" as="geometry">
            <mxPoint x="1155" y="430" as="targetPoint" />
            <Array as="points">
              <mxPoint x="1155" y="430" />
              <mxPoint x="1080" y="430" />
              <mxPoint x="1080" y="470" />
            </Array>
          </mxGeometry>
        </mxCell>
        <mxCell id="KKW1EfT1PSWqCPjwvVtM-23" style="edgeStyle=orthogonalEdgeStyle;rounded=0;orthogonalLoop=1;jettySize=auto;html=1;entryX=0.5;entryY=0;entryDx=0;entryDy=0;" edge="1" parent="1" source="KKW1EfT1PSWqCPjwvVtM-24" target="KKW1EfT1PSWqCPjwvVtM-10">
          <mxGeometry relative="1" as="geometry">
            <Array as="points">
              <mxPoint x="1155" y="430" />
              <mxPoint x="1237" y="430" />
            </Array>
          </mxGeometry>
        </mxCell>
        <mxCell id="KKW1EfT1PSWqCPjwvVtM-24" value="源域和目标域&lt;br&gt;数据存在？" style="rhombus;whiteSpace=wrap;html=1;shadow=0;fontFamily=Helvetica;fontSize=12;align=center;strokeWidth=1;spacing=6;spacingTop=-4;" vertex="1" parent="1">
          <mxGeometry x="1100" y="330" width="110" height="60" as="geometry" />
        </mxCell>
        <mxCell id="KKW1EfT1PSWqCPjwvVtM-29" value="" style="edgeStyle=orthogonalEdgeStyle;rounded=0;orthogonalLoop=1;jettySize=auto;html=1;" edge="1" parent="1" source="KKW1EfT1PSWqCPjwvVtM-30" target="KKW1EfT1PSWqCPjwvVtM-31">
          <mxGeometry relative="1" as="geometry" />
        </mxCell>
        <mxCell id="KKW1EfT1PSWqCPjwvVtM-30" value="获取转换后图像&lt;br&gt;频域" style="rounded=1;whiteSpace=wrap;html=1;" vertex="1" parent="1">
          <mxGeometry x="1030" y="840" width="100" height="40" as="geometry" />
        </mxCell>
        <mxCell id="KKW1EfT1PSWqCPjwvVtM-31" value="控件绑定图像&lt;br&gt;并展示" style="rounded=1;whiteSpace=wrap;html=1;" vertex="1" parent="1">
          <mxGeometry x="1030" y="900" width="100" height="40" as="geometry" />
        </mxCell>
        <mxCell id="KKW1EfT1PSWqCPjwvVtM-32" value="" style="edgeStyle=orthogonalEdgeStyle;rounded=0;orthogonalLoop=1;jettySize=auto;html=1;" edge="1" parent="1" source="KKW1EfT1PSWqCPjwvVtM-33" target="KKW1EfT1PSWqCPjwvVtM-35">
          <mxGeometry relative="1" as="geometry" />
        </mxCell>
        <mxCell id="KKW1EfT1PSWqCPjwvVtM-33" value="获取源域图像&lt;br&gt;频域" style="rounded=1;whiteSpace=wrap;html=1;" vertex="1" parent="1">
          <mxGeometry x="1030" y="600" width="100" height="40" as="geometry" />
        </mxCell>
        <mxCell id="KKW1EfT1PSWqCPjwvVtM-34" style="edgeStyle=orthogonalEdgeStyle;rounded=0;orthogonalLoop=1;jettySize=auto;html=1;entryX=0.5;entryY=0;entryDx=0;entryDy=0;" edge="1" parent="1" source="KKW1EfT1PSWqCPjwvVtM-35" target="KKW1EfT1PSWqCPjwvVtM-53">
          <mxGeometry relative="1" as="geometry" />
        </mxCell>
        <mxCell id="KKW1EfT1PSWqCPjwvVtM-35" value="获取目标域图像&lt;br&gt;频域" style="rounded=1;whiteSpace=wrap;html=1;" vertex="1" parent="1">
          <mxGeometry x="1030" y="660" width="100" height="40" as="geometry" />
        </mxCell>
        <mxCell id="KKW1EfT1PSWqCPjwvVtM-37" value="" style="edgeStyle=orthogonalEdgeStyle;rounded=0;orthogonalLoop=1;jettySize=auto;html=1;" edge="1" parent="1" source="KKW1EfT1PSWqCPjwvVtM-38" target="KKW1EfT1PSWqCPjwvVtM-30">
          <mxGeometry relative="1" as="geometry" />
        </mxCell>
        <mxCell id="KKW1EfT1PSWqCPjwvVtM-38" value="交换源域和目标域低频域部分信息" style="rounded=1;whiteSpace=wrap;html=1;" vertex="1" parent="1">
          <mxGeometry x="1030" y="780" width="100" height="40" as="geometry" />
        </mxCell>
        <mxCell id="KKW1EfT1PSWqCPjwvVtM-39" value="" style="edgeStyle=orthogonalEdgeStyle;rounded=0;orthogonalLoop=1;jettySize=auto;html=1;" edge="1" parent="1" source="KKW1EfT1PSWqCPjwvVtM-40" target="KKW1EfT1PSWqCPjwvVtM-33">
          <mxGeometry relative="1" as="geometry" />
        </mxCell>
        <mxCell id="KKW1EfT1PSWqCPjwvVtM-40" value="傅里叶变换" style="rounded=1;whiteSpace=wrap;html=1;" vertex="1" parent="1">
          <mxGeometry x="1030" y="540" width="100" height="40" as="geometry" />
        </mxCell>
        <mxCell id="KKW1EfT1PSWqCPjwvVtM-50" style="edgeStyle=orthogonalEdgeStyle;rounded=0;orthogonalLoop=1;jettySize=auto;html=1;entryX=0.5;entryY=0;entryDx=0;entryDy=0;" edge="1" parent="1" source="KKW1EfT1PSWqCPjwvVtM-51" target="KKW1EfT1PSWqCPjwvVtM-55">
          <mxGeometry relative="1" as="geometry" />
        </mxCell>
        <mxCell id="KKW1EfT1PSWqCPjwvVtM-51" value="选择模型权重" style="rounded=1;whiteSpace=wrap;html=1;" vertex="1" parent="1">
          <mxGeometry x="1187" y="541" width="100" height="40" as="geometry" />
        </mxCell>
        <mxCell id="KKW1EfT1PSWqCPjwvVtM-52" style="edgeStyle=orthogonalEdgeStyle;rounded=0;orthogonalLoop=1;jettySize=auto;html=1;entryX=0.5;entryY=0;entryDx=0;entryDy=0;" edge="1" parent="1" source="KKW1EfT1PSWqCPjwvVtM-53" target="KKW1EfT1PSWqCPjwvVtM-38">
          <mxGeometry relative="1" as="geometry" />
        </mxCell>
        <mxCell id="KKW1EfT1PSWqCPjwvVtM-53" value="调整交换&lt;br&gt;区域大小" style="rounded=1;whiteSpace=wrap;html=1;" vertex="1" parent="1">
          <mxGeometry x="1030" y="720" width="100" height="40" as="geometry" />
        </mxCell>
        <mxCell id="KKW1EfT1PSWqCPjwvVtM-54" style="edgeStyle=orthogonalEdgeStyle;rounded=0;orthogonalLoop=1;jettySize=auto;html=1;entryX=0.5;entryY=0;entryDx=0;entryDy=0;" edge="1" parent="1" source="KKW1EfT1PSWqCPjwvVtM-55" target="KKW1EfT1PSWqCPjwvVtM-57">
          <mxGeometry relative="1" as="geometry" />
        </mxCell>
        <mxCell id="KKW1EfT1PSWqCPjwvVtM-55" value="调整检测框阈值" style="rounded=1;whiteSpace=wrap;html=1;" vertex="1" parent="1">
          <mxGeometry x="1187" y="601" width="100" height="40" as="geometry" />
        </mxCell>
        <mxCell id="KKW1EfT1PSWqCPjwvVtM-56" style="edgeStyle=orthogonalEdgeStyle;rounded=0;orthogonalLoop=1;jettySize=auto;html=1;entryX=0.5;entryY=0;entryDx=0;entryDy=0;" edge="1" parent="1" source="KKW1EfT1PSWqCPjwvVtM-57" target="KKW1EfT1PSWqCPjwvVtM-58">
          <mxGeometry relative="1" as="geometry" />
        </mxCell>
        <mxCell id="KKW1EfT1PSWqCPjwvVtM-57" value="获取检测结果" style="rounded=1;whiteSpace=wrap;html=1;" vertex="1" parent="1">
          <mxGeometry x="1187" y="661" width="100" height="40" as="geometry" />
        </mxCell>
        <mxCell id="KKW1EfT1PSWqCPjwvVtM-58" value="控件绑定图像&lt;br&gt;并展示" style="rounded=1;whiteSpace=wrap;html=1;" vertex="1" parent="1">
          <mxGeometry x="1187" y="721" width="100" height="40" as="geometry" />
        </mxCell>
      </root>
    </mxGraphModel>
  </diagram>
</mxfile>
